<svg width="512" height="512" xmlns="http://www.w3.org/2000/svg" preserveAspectRatio="xMidYMid meet" version="1.0">
 <g>
  <title>Layer 1</title>
  <ellipse ry="232.5" rx="238" id="svg_11" cy="255.5" cx="256" stroke="null" fill="#00fe7e"/>
  <rect fill="#00fe7e" id="svg_9" height="199" width="139" y="133" x="277"/>
  <path id="svg_3" d="m239.5,40.59999c-28.7,3 -52,9.2 -74.9,19.8c-45.1,21 -85.2,61.6 -105.5,107.1c-26.2,58.9 -25,126 3.4,183.4c15.8,31.7 37,57.2 64.5,77.7c13.8,10.2 34.4,22.4 35.7,21.1c0.2,-0.3 1.7,-25.6 3.3,-56.4c1.6,-30.7 3.1,-59.7 3.5,-64.4l0.6,-8.6l-9,-3.2c-11.2,-4.1 -19.4,-9.5 -27,-17.7c-17.8,-19.4 -27.4,-50.1 -25.8,-82.4c2.2,-45.3 38.4,-87 75.5,-87c10.2,0 23.7,4.6 34.1,11.8c12.2,8.3 26.8,26.7 33,41.5c6.1,14.7 7.5,22.5 7.5,39.7c0,32.4 -8.7,58 -26.3,77.2c-6.9,7.5 -15.2,12.8 -26.2,16.8l-8.9,3.2l0.1,3.6c0,2 1.7,34.7 3.7,72.7l3.7,69l5.5,1.2c27.1,6.1 58.1,6.5 85.8,1.2c13.1,-2.5 28.3,-6.9 28.7,-8.3c0.4,-1.2 6.5,-119.9 6.5,-125.2c0,-2.9 -0.4,-3.3 -6,-5.2c-9.7,-3.3 -18.9,-9 -26.7,-16.7c-11.8,-11.6 -11.8,-11.8 -11.7,-44c0,-14.9 0.6,-33.5 1.3,-41.5c1.4,-16.9 7.5,-75 9.2,-88l1.2,-9l6.8,0l6.9,0l0,72.5l0,72.5l6.5,0l6.5,0l0,-72.5l0,-72.5l7.5,0l7.5,0l0,72.5l0,72.5l6.5,0l6.5,0l0,-72.5l0,-72.5l7.5,0l7.5,0l0,72.5l0,72.5l6.5,0l6.5,0l0,-72.5l0,-72.5l5.4,0l5.3,0l1.2,9c1.7,13 7.8,71.1 9.2,88c0.7,8 1.3,26.6 1.3,41.5c0.1,32.2 0.1,32.4 -11.7,44c-7.8,7.7 -17,13.4 -26.7,16.7l-6,2.1l0,5.6c0,3.1 1.1,26.7 2.5,52.6c1.4,25.9 2.5,48.2 2.5,49.7c0,1.6 0.3,2.8 0.8,2.8c0.4,0 4.6,-2.6 9.4,-5.7c52.2,-34.8 85.9,-87.4 95.5,-149.3c2.4,-15.8 2.4,-47.3 -0.1,-62.5c-10.6,-65.6 -47.4,-120.2 -103.9,-154.4c-22.2,-13.4 -50.4,-23.4 -77.7,-27.6c-10.2,-1.5 -40.5,-2.7 -48.5,-1.9z"/>
  <rect stroke="null" id="svg_5" height="37" width="135" y="106" x="268"/>
  <ellipse rx="0.5" id="svg_7" cy="185" cx="319.5"/>
  <rect id="svg_10" height="194" width="189" y="130" x="86" stroke="null" fill="#000000"/>
  <ellipse stroke="null" fill="#ffffff" ry="98.49999" rx="86.35396" id="svg_6" cy="227.5" cx="183.35396"/>
 </g>

</svg>
